<?xml version="1.0" encoding="UTF-8"?><svg id="Camada_2" xmlns="http://www.w3.org/2000/svg" viewBox="0 0 800 192.44"><defs><style>.cls-1{fill:#a35cff;}.cls-2{fill:#1b0047;}</style></defs><g id="Camada_2-2"><path class="cls-2" d="m85.35,142.25h-21.83l-42.87-57.87v57.87H0V50.19h21.83l43.01,57.87v-57.87h20.52v92.06Z"/><path class="cls-2" d="m186.21,69h-52.61v17.75h48.92v17.89h-48.92v18.81h53.53v18.81h-74.44V50.19h73.52v18.81Z"/><path class="cls-2" d="m293.52,50.19v50.11c0,29.46-16.31,43.27-41.69,43.27s-41.69-14.47-41.69-43.27v-50.11h20.91v50.11c0,16.7,8.29,24.07,20.78,24.07s20.78-7.89,20.78-24.07v-50.11h20.91Z"/><path class="cls-2" d="m405.56,68.47l-18.15,10.13c-5.26-6.71-12.23-9.99-20.78-9.99-7.63,0-14.07,2.63-19.2,8.02-5.13,5.39-7.63,11.84-7.63,19.6s2.5,14.34,7.63,19.73c5.13,5.39,11.57,8.02,19.2,8.02,8.55,0,15.52-3.42,20.78-10.13l18.15,10.26c-8.94,11.97-23.28,19.46-39.06,19.46-26.17.66-49.06-21.7-48.4-47.35-.66-25.64,22.23-47.87,48.4-47.34,15.78,0,30.12,7.5,39.06,19.6Z"/><path class="cls-2" d="m473.15,48.87c17.75,0,33.67,8.94,42.48,23.54,4.34,7.23,6.58,15.26,6.58,23.8,0,17.23-9.34,32.62-24.46,41.03-7.49,4.21-15.78,6.31-24.59,6.31-17.75,0-33.67-8.94-42.48-23.54-4.34-7.23-6.58-15.25-6.58-23.8,0-17.23,9.34-32.61,24.46-41.03,7.5-4.21,15.78-6.31,24.59-6.31Zm-27.35,47.34c0,15.39,11.71,27.62,27.35,27.62,7.76,0,14.34-2.63,19.46-8.02,5.13-5.39,7.76-11.84,7.76-19.6s-2.63-14.2-7.76-19.6c-5.13-5.39-11.71-8.02-19.46-8.02-15.65,0-27.35,12.23-27.35,27.62Z"/><path class="cls-1" d="m702.48,82.47c.43-.04.85-.13,1.3-.13s.86.09,1.3.13v-33.88c1.32.04,2.64.08,3.94.23V0h-10.47v48.82c1.29-.14,2.62-.19,3.94-.23v33.88Z"/><path class="cls-1" d="m707.84,83.01c.84.26,1.64.59,2.4.99l12.96-31.28c1.2.53,2.41,1.07,3.56,1.7l18.68-45.09-9.67-4.01-18.69,45.11c1.27.37,2.5.83,3.72,1.3l-12.96,31.28Z"/><path class="cls-1" d="m705.07,109.97c-.43.04-.85.13-1.3.13s-.86-.09-1.3-.13v33.88c-1.32-.04-2.64-.08-3.94-.23v48.82h10.47v-48.82c-1.29.14-2.62.19-3.94.23v-33.88Z"/><path class="cls-1" d="m699.71,109.43c-.84-.26-1.64-.59-2.4-.99l-12.96,31.28c-1.2-.53-2.41-1.07-3.56-1.7l-18.68,45.1,9.67,4.01,18.69-45.12c-1.27-.37-2.5-.83-3.72-1.3l12.96-31.28Z"/><path class="cls-1" d="m669.2,63.48l23.93,23.93c.55-.67,1.16-1.28,1.83-1.83l-23.93-23.93c.95-.9,1.91-1.81,2.94-2.63l-34.53-34.53-7.4,7.4,34.53,34.53c.82-1.03,1.73-1.98,2.63-2.94Z"/><path class="cls-1" d="m659.29,79.2l31.28,12.96c.26-.84.59-1.64.99-2.4l-31.28-12.96c.53-1.2,1.07-2.41,1.7-3.56l-45.1-18.68-4.01,9.67,45.12,18.69c.37-1.27.83-2.5,1.3-3.72Z"/><path class="cls-1" d="m736.52,61.64l-23.93,23.93c.67.55,1.28,1.16,1.83,1.83l23.93-23.93c.9.95,1.81,1.91,2.63,2.94l34.53-34.53-7.4-7.4-34.53,34.53c1.03.82,1.98,1.73,2.94,2.63Z"/><path class="cls-1" d="m747.28,76.8l-31.28,12.96c.4.76.73,1.56.99,2.4l31.28-12.96c.46,1.23.93,2.45,1.3,3.72l45.11-18.69-4.01-9.67-45.09,18.68c.63,1.15,1.17,2.35,1.7,3.56Z"/><path class="cls-1" d="m656.15,97.52h33.88c-.04-.43-.13-.85-.13-1.3s.09-.86.13-1.3h-33.88c.04-1.32.08-2.64.23-3.94h-48.82v10.47h48.82c-.14-1.29-.19-2.62-.23-3.94Z"/><path class="cls-1" d="m684.36,52.72l12.96,31.28c.76-.4,1.56-.73,2.4-.99l-12.96-31.28c1.23-.46,2.45-.93,3.72-1.3l-18.69-45.11-9.67,4.01,18.68,45.09c1.15-.63,2.35-1.17,3.56-1.7Z"/><path class="cls-1" d="m738.36,128.97l-23.93-23.93c-.55.67-1.16,1.28-1.83,1.83l23.93,23.93c-.95.9-1.91,1.81-2.94,2.63l34.53,34.53,7.4-7.4-34.53-34.53c-.82,1.03-1.73,1.98-2.63,2.94Z"/><path class="cls-1" d="m723.2,139.72l-12.96-31.28c-.76.4-1.56.73-2.4.99l12.96,31.28c-1.23.46-2.45.93-3.72,1.3l18.69,45.12,9.67-4.01-18.68-45.1c-1.15.63-2.35,1.17-3.56,1.7Z"/><path class="cls-1" d="m748.27,113.24l-31.28-12.96c-.26.84-.59,1.64-.99,2.4l31.28,12.96c-.53,1.2-1.07,2.41-1.7,3.56l45.09,18.68,4.01-9.67-45.11-18.69c-.37,1.27-.83,2.5-1.3,3.72Z"/><path class="cls-1" d="m751.18,90.99c.14,1.29.19,2.62.23,3.94h-33.88c.04.43.13.85.13,1.3s-.09.86-.13,1.3h33.88c-.04,1.32-.08,2.64-.23,3.94h48.82v-10.47h-48.82Z"/><path class="cls-1" d="m671.03,130.8l23.93-23.93c-.67-.55-1.28-1.16-1.83-1.83l-23.93,23.93c-.9-.95-1.81-1.91-2.63-2.94l-34.53,34.53,7.4,7.4,34.53-34.53c-1.03-.82-1.98-1.73-2.94-2.63Z"/><path class="cls-1" d="m660.28,115.64l31.28-12.96c-.4-.76-.73-1.56-.99-2.4l-31.28,12.96c-.47-1.23-.93-2.45-1.3-3.72l-45.12,18.69,4.01,9.67,45.1-18.68c-.63-1.15-1.17-2.35-1.7-3.56Z"/></g></svg>